<svg xmlns="http://www.w3.org/2000/svg" viewBox="0 0 64 64">
  <rect width="64" height="64" rx="12" fill="#2F80ED"/>
  <path fill="#fff" d="M17.9 21.3h5.8c.4 0 .7.2.8.6 1 3 2.3 5.7 4 7.8.8 1 1.6 1.6 2.3 1.9.2-.4.3-1.2.3-2.5v-7c0-.4.3-.8.8-.8h4.9c.4 0 .8.4.8.8v7.8c0 .8.1 1.4.2 1.7.8-.4 2.1-1.7 3.8-4.1.9-1.3 1.7-2.7 2.4-4.1.1-.3.4-.4.7-.4h5.5c.6 0 .9.6.6 1.1-.9 1.7-1.9 3.3-3 4.9-1.1 1.5-2.4 2.9-3.6 4-.3.2-.3.7-.1.9.5.7 1.4 1.6 2.5 2.8 1.2 1.2 2 2.2 2.6 3.1.3.4 0 1-.5 1h-5.5c-.2 0-.5-.1-.6-.3-.6-.7-1.2-1.4-1.8-2-1.6-1.7-2.4-2-2.9-2-.3 0-.5.1-.7.3-.2.3-.3.8-.3 1.9v1.2c0 .4-.4.8-.8.8h-2.6c-2.8 0-5.5-1.3-7.8-3.8-2.1-2.1-3.9-5.2-5.3-9.3-.2-.5.2-.9.7-.9Z"/>
</svg>
