<svg xmlns="http://www.w3.org/2000/svg" viewBox="0 0 64 64">
  <rect width="64" height="64" rx="12" fill="#25D366"/>
  <path fill="#fff" d="M31.8 16.2c-8.6 0-15.5 6.8-15.5 15.3 0 2.7.7 5.2 2 7.5l-2 7.8 8-2.1c1.9 1 4 1.6 6.9 1.6 8.5 0 15.5-6.8 15.5-15.3S40.3 16.2 31.8 16.2Zm0 2.9c7 0 12.7 5.5 12.7 12.3s-5.7 12.3-12.7 12.3c-2.2 0-4.2-.5-6-1.5l-.6-.3-4.7 1.2 1.3-4.5-.4-.6a12 12 0 0 1-1.9-6.5c0-6.8 5.7-12.3 12.7-12.3Zm-5.3 6c-.4 0-.8.1-1 .4-.2.3-1 1-1 2.4 0 1.5 1.1 2.9 1.2 3 .1.2 2.1 3.3 5.1 4.5 2.5 1 3 .8 3.6.7.6-.1 1.7-.7 2-1.4.2-.7.2-1.2.1-1.4-.1-.1-.3-.2-.5-.3s-1.6-.8-1.9-.9c-.3-.1-.5-.1-.7.1-.2.3-.8 1-1 1.2-.2.2-.4.3-.6.1-.3-.1-1.2-.5-2.2-1.4-.9-.8-1.5-1.8-1.7-2-.1-.3 0-.4.1-.6.1-.1.3-.3.4-.5.1-.1.2-.3.3-.5.1-.2 0-.4 0-.5l-.9-2.1c-.2-.5-.4-.5-.6-.5Z"/>
</svg>
